<svg xmlns="http://www.w3.org/2000/svg" width="852" height="1290" version="1"><g fill="none" fill-rule="evenodd"><g fill="#000"><ellipse cx="426" cy="421" rx="426" ry="421"/><ellipse cx="426" cy="959" rx="187" ry="104"/><ellipse cx="427" cy="1034" rx="186" ry="104"/><ellipse cx="426" cy="1110" rx="184" ry="98"/><ellipse cx="428" cy="1173" rx="167" ry="82"/><ellipse cx="426" cy="1242" rx="77" ry="49"/><path d="M261 922c-7 0-18-17-31-53-19-53-65-112-103-150-26-25 175-25 603 0-39 39-64 67-74 81"/><path d="M730 719c-31 32-51 54-61 67-15 20-30 41-36 55s-29 81-38 81H261"/></g><path fill="#FFF" fill-rule="nonzero" d="M306 194c-13-3-24-5-35-14-3-2-9-6-9-10 0-5 8-9 11-13 7 7 14 13 24 15 19 5 43-3 45-25l19 4c-6 17-17 35-36 39-2 35-29 62-64 62 5 17 9 33 2 50-2 7-6 12-11 17l-8 8c-2 3 1 8 1 12l-3 16c-1 3-3 6-2 9 0 5 6 9 10 12 10 6 22 6 33 1 3-1 6-2 8-5 3-5 1-15 2-21 3-17 13-33 28-42 2 6 6 11 10 15-4 4-9 8-12 13-10 14-10 32-3 47 3 6 7 11 12 15 3 2 7 4 8 7 1 5-4 11-5 16-14-6-26-17-32-31-7 3-14 7-22 8-20 4-37-5-50-19-15 10-27 18-45 20 5 9 8 19 8 29 30-6 59 2 77 28 5 8 8 16 11 24 9-2 19-2 28 2 4 1 9 5 14 6l10-3 19-3 19 4c3 1 6 2 8 0 6-5 9-17 10-24a102 102 0 0 0-25-93c-2-2-7-5-7-9 0-5 10-12 13-16 9-11 16-24 19-38 4-21 1-41-8-60l-10-16c-2-2-5-5-5-7-1-4 4-9 6-12 5-8 8-16 11-25 11-34 5-80-25-103-28-23-64-6-86 16l-14 16c-2 3-4 7-7 9-2 2-6 0-9-1h-17c-23 5-38 29-35 52 6 32 41 57 73 57 12 0 23-1 32-9s11-19 14-30zM491 223a92 92 0 0 0-1 129c2 2 8 6 8 9 0 4-6 9-9 11a101 101 0 0 0-24 91l11 26c9-2 19-6 29-6l17 3 10 3c5-1 9-5 14-6 9-4 18-4 28-2 6-28 30-50 58-54 10-1 20 0 30 2 0-10 4-19 7-29-16-3-31-8-43-20-6 4-11 10-17 13-12 7-27 9-40 5l-16-7c-6 15-19 23-32 31l-7-18c23-7 32-39 23-60l-8-13c-2-2-6-4-6-6-1-5 6-12 8-16a66 66 0 0 1 29 50c0 6-2 12 4 16 12 8 27 8 39 0 4-3 9-7 9-12 0-4-3-9-4-14-1-8 0-15 1-23-15-9-26-28-25-46l6-27-20-4c-15-5-29-16-36-30-3-5-4-11-6-17 0-3 0-8-2-10-3-4-10-6-14-9-10-8-18-19-21-32 4-1 13-5 17-3l4 8c3 5 6 9 10 12 17 12 44 5 56-11 3 3 12 9 12 13s-6 8-9 10c-11 8-22 11-35 14 2 11 5 21 13 29 10 9 22 10 34 10 34 0 77-32 72-70-4-21-19-38-41-40l-13 2-6 1c-3-1-5-6-7-8l-14-18a72 72 0 0 0-61-27c-19 2-36 17-44 33-16 28-16 63-3 92 3 9 8 19 15 25z"/><path fill="#FFF" class="correctLightbulb" fill-rule="nonzero" d="M681 189c-8 19-19 35-36 46-13 9-31 11-38 26-12 24 3 54 31 54-4 5-8 10-10 16-10 27 19 47 43 49 18 2 34-6 52-6 9 1 17 3 25 6 3 1 8 5 12 3 3-1 4-5 6-8 4-9 6-18 6-28 0-35-32-64-66-64 4-6 8-11 11-18 9-21 10-52-11-67-8-5-16-7-25-9zM146 283c-39 0-70 35-66 74 1 11 7 19 12 28 12-3 22-9 35-10 17-3 33 7 49 6 25-1 58-21 48-50-2-6-6-11-10-16 28 0 43-30 31-54-6-12-17-14-28-20a99 99 0 0 1-42-43c-2-3-3-7-6-7-5-2-13 2-18 4-19 10-25 33-21 53 2 14 9 24 16 35zM139 583c-11 34-1 79 39 87h18c6 0 12-1 17-3 0 25-1 56 27 68l14 4c9 1 18 0 26-2 4-1 9-4 13-3l7 5 12 9c18 10 40 13 59 3 37-21 37-71 18-104-4-7-9-15-16-20 27-28 38-76 10-108-5-6-12-11-19-14-9-3-21-3-30 1-4 1-10 7-15 6-4 0-8-5-12-7-10-5-24-9-35-2-8 6-12 17-11 26 0 4 3 10 1 14-2 5-11 8-15 12a46 46 0 0 0-16 37c1 15 12 27 26 32 3 1 10 4 14 3l4-8 7-14c9-13 23-22 39-25l4 18c-12 4-24 10-30 22-13 23 3 54 27 61l-6 18c-21-6-42-29-44-52-11-2-21-4-30-10a58 58 0 0 1-10-95l8-8c2-3 1-7 1-11a49 49 0 0 1 13-28c2-2 5-4 5-7 1-6-4-15-7-20-2-4-5-8-9-11-23-20-53-7-78 0 5-12 9-26 5-39-9-30-46-30-68-15-24 16-33 45-33 72 0 41 13 81 52 101 6 3 12 6 18 7zM687 457c-24-6-54-20-76-2l-10 11c-4 5-10 15-9 22 1 3 4 5 6 7a57 57 0 0 1 13 29c0 3-1 8 1 11l9 8 13 17c14 28 3 62-24 77-9 6-19 8-30 10-3 23-22 45-44 52-1-4-7-12-5-16 2-3 6-5 9-7 5-3 10-8 13-13 17-24 5-61-26-64l4-19a63 63 0 0 1 47 40c1 3 1 6 4 7 5 1 11-2 15-4 22-9 30-34 19-55-4-6-9-12-15-16-3-3-9-5-11-9v-11c0-9 0-19-7-27-10-9-26-6-37 0-4 2-10 9-15 7-7-1-12-7-19-8-23-5-42 8-52 28-10 21-9 47 0 68 3 7 7 12 11 18 2 3 6 6 5 9 0 4-4 7-6 10-5 6-9 12-12 19-12 26-12 61 8 83 18 20 45 23 68 12l15-10 9-7c4-2 10 2 14 3 8 2 16 3 24 2l15-4c18-8 27-26 28-45v-23c26 11 59 0 72-26 8-18 7-39 2-58 54-13 75-72 69-122-3-22-12-47-32-59-20-13-56-14-67 11-6 14-2 31 4 44z"/></g></svg>